<svg viewBox="450 400 880 1200" fill="none" xmlns="http://www.w3.org/2000/svg">
<path d="M947.923 422.3C1063.74 418.462 1195.73 421.6 1312.73 421.782C1281.78 457.629 1251.25 506.508 1216.72 546.603C1155.75 548.402 1091.98 545.745 1030.83 546.84C994.641 547.489 944.626 544.601 910.153 553.445C883.638 560.138 859.416 573.86 840.041 593.167C778.955 654.024 790.191 738.13 790.164 817.515C847.298 814.46 910.721 816.986 968.381 816.13C996.99 815.704 1034.26 818.096 1062.11 814.442C1032.64 855.92 1003.52 897.656 974.784 939.649C911.083 940.389 855.024 941.109 791.384 945.803C787.348 1068.29 789.357 1197.58 789.399 1320.53C789.458 1364.07 790.836 1416.01 788.513 1458.89C758.852 1492.19 698.264 1549.25 664.666 1580.11C667.311 1518.35 664.929 1438.19 664.918 1375.26L664.648 980.732C618.891 991.702 512.604 1029.1 467 1047.79C498.808 932.087 556.661 887.077 665.157 848.209C664.176 816.169 665.593 781.513 664.679 750.165C661.992 657.925 671.554 584.775 736.76 513.802C794.911 450.512 863.619 426.292 947.923 422.3Z" fill="#F7F7F9"/>
<path d="M901.789 1302.3L1004.54 1268.29V1559.24L901.789 1458.78V1302.3Z" fill="#879FCA"/>
<path d="M1030.22 1185.16L1132.97 1139.82V1563.02H1030.22V1185.16Z" fill="#879FCA"/>
<path d="M1158.66 1007.88L1261.41 958.445V1458.78L1158.66 1555.46V1007.88Z" fill="#6280B4"/>
</svg>
